<svg width="31" height="21" viewBox="0 0 31 21" fill="none" xmlns="http://www.w3.org/2000/svg">
<path fill-rule="evenodd" clip-rule="evenodd" d="M30.3936 9.56087C30.641 9.77573 30.7804 10.0675 30.7811 10.372C30.7819 10.6766 30.644 10.969 30.3977 11.1852L19.876 20.4059C19.7557 20.5192 19.6104 20.6101 19.4488 20.6733C19.2873 20.7365 19.1128 20.7708 18.9359 20.7739C18.7589 20.7771 18.583 20.7492 18.4188 20.6918C18.2545 20.6344 18.1052 20.5487 17.9797 20.4399C17.8543 20.3311 17.7553 20.2013 17.6886 20.0584C17.622 19.9155 17.589 19.7623 17.5918 19.608C17.5945 19.4536 17.6328 19.3014 17.7045 19.1602C17.7762 19.019 17.8798 18.8919 18.009 18.7864L26.286 11.5327L1.34732 11.5958C0.997737 11.5967 0.662162 11.4764 0.414423 11.2615C0.166682 11.0466 0.0270712 10.7546 0.0263001 10.4498C0.025529 10.145 0.163661 9.85237 0.410311 9.63621C0.65696 9.42006 0.991922 9.29813 1.34151 9.29724L26.2802 9.23415L17.9666 2.02244C17.8368 1.91755 17.7326 1.79094 17.6602 1.65014C17.5878 1.50935 17.5487 1.35727 17.5452 1.20296C17.5417 1.04866 17.5738 0.895296 17.6398 0.752025C17.7057 0.608754 17.8041 0.478509 17.9289 0.36906C18.0538 0.259612 18.2027 0.173201 18.3667 0.114984C18.5307 0.0567672 18.7064 0.0279366 18.8834 0.0302115C19.0604 0.0324864 19.235 0.0658202 19.3969 0.128225C19.5587 0.19063 19.7045 0.280827 19.8254 0.393436L30.3936 9.56087Z" fill="#320064"/>
</svg>
