<svg width="63" height="63" viewBox="0 0 63 63" fill="none" xmlns="http://www.w3.org/2000/svg">
<path fill-rule="evenodd" clip-rule="evenodd" d="M31.5 63C48.897 63 63 48.897 63 31.5C63 14.103 48.897 0 31.5 0C14.103 0 0 14.103 0 31.5C0 48.897 14.103 63 31.5 63ZM42.3353 21.488C43.0742 21.5038 43.8289 21.6296 44.5678 21.8656L44.5835 21.8499C48.7026 23.187 50.9508 27.6075 49.6144 31.7291C48.7183 34.4978 46.4229 36.4171 43.7817 36.9834L46.7531 51H23.4379L21.4727 41.7343C20.1678 42.0174 18.7686 41.9702 17.4165 41.5297C13.2974 40.1926 11.0492 35.7721 12.3856 31.6505C13.0773 29.511 14.6023 27.8749 16.4889 26.9783C15.4827 25.1534 15.2155 22.9353 15.9072 20.7958C17.2436 16.6742 21.6613 14.4247 25.7804 15.7618C26.5351 15.9978 27.2111 16.3439 27.8242 16.7686C29.6637 13.7325 33.4211 12.238 36.9428 13.3864C40.4644 14.5348 42.634 17.9485 42.3353 21.488ZM22.9662 31.6819C23.8781 35.9137 28.0443 38.6194 32.2734 37.7227V37.7385C36.5026 36.8261 39.2067 32.6573 38.3106 28.4255C37.7917 26.0029 35.4178 24.4455 32.9966 24.9647C31.6917 25.2478 30.6384 26.0658 30.0253 27.1513C29.0348 26.4119 27.7299 26.0816 26.425 26.3647C24.0039 26.8839 22.4474 29.2593 22.9662 31.6819Z" fill="#320064" fill-opacity="0.6"/>
</svg>
