<svg width="56" height="42" viewBox="0 0 56 42" fill="none" xmlns="http://www.w3.org/2000/svg">
<path opacity="0.9" d="M39.1318 19.7786L55.2371 35.8839L52.9513 38.168L36.846 22.0627L39.1318 19.7786ZM17.2951 19.848L19.5792 22.1322L3.587 38.1244L1.30286 35.8467L17.2951 19.848Z" fill="#320064"/>
<path d="M28.1534 28.9164C25.7303 28.9164 23.1457 27.9472 21.3688 26.0088L1.17657 5.97808L3.4381 3.71655L23.6303 23.9088C26.2149 26.4934 30.2534 26.4934 32.838 23.9088L53.0302 3.71655L55.2917 5.97808L34.938 26.1703C33.1611 27.9472 30.5765 28.9164 28.1534 28.9164Z" fill="#320064"/>
<path d="M50.769 41.9998H5.53839C2.79225 41.9998 0.692261 39.8998 0.692261 37.1537V4.84613C0.692261 2.09999 2.79225 0 5.53839 0H50.769C53.5151 0 55.6151 2.09999 55.6151 4.84613V37.1537C55.6151 39.8998 53.5151 41.9998 50.769 41.9998ZM5.53839 3.23076C4.56917 3.23076 3.92302 3.87691 3.92302 4.84613V37.1537C3.92302 38.1229 4.56917 38.7691 5.53839 38.7691H50.769C51.7382 38.7691 52.3844 38.1229 52.3844 37.1537V4.84613C52.3844 3.87691 51.7382 3.23076 50.769 3.23076H5.53839Z" fill="#320064"/>
</svg>
