<svg width="222" height="38" viewBox="0 0 222 38" fill="none" xmlns="http://www.w3.org/2000/svg">
<path d="M63.5479 9.22513C59.867 9.22513 57.0319 11.3253 55.2932 15.3375L53.5076 14.4911C54.6354 12.5947 55.0896 11.2469 55.1209 9.67963H48.7772V38.0001H55.3246C55.4499 30.5556 55.1993 28.6906 53.4606 25.2896L55.1993 24.4433C56.9379 28.4084 59.8043 30.5556 63.5323 30.5556C68.9518 30.5556 72.8677 26.0575 72.8677 19.8669C72.8677 13.6762 68.9518 9.22513 63.5323 9.22513H63.5479ZM61.1671 25.5247C57.6428 25.5247 55.2619 23.2208 55.2619 19.8669C55.2619 16.5129 57.6428 14.2404 61.1671 14.2404C64.6914 14.2404 66.9939 16.5129 66.9939 19.8669C66.9939 23.2208 64.6444 25.5247 61.1671 25.5247Z" fill="#320064"/>
<path d="M86.7612 9.17809C80.0885 9.17809 75.2798 13.6761 75.2798 19.8982C75.2798 26.1202 80.0572 30.6183 86.7299 30.6183C91.8988 30.6183 96.0653 27.9069 97.6943 23.6126H91.7422C90.6927 25.1485 88.8758 26.0419 86.7299 26.0419C83.7851 26.0419 81.6392 24.3492 81.1067 21.7475H98.1329C99.151 14.6635 94.17 9.16241 86.7769 9.16241L86.7612 9.17809ZM81.0597 18.0801C81.6236 15.4471 83.7695 13.7075 86.7612 13.7075C89.7529 13.7075 91.9302 15.4001 92.5097 18.0801H81.0597Z" fill="#320064"/>
<path d="M109.16 22.2176V14.1619H114.627V9.67953C111.024 9.60116 109.458 9.96164 107.14 11.2625L106.247 9.67953C109.003 8.09659 109.802 6.8898 110.053 3.8493H104.226C104.226 8.45706 103.333 9.67953 99.574 9.67953V14.1619H103.177V22.4684C103.177 28.9882 106.012 30.9316 114.736 30.0383V24.8977C110.163 25.4619 109.16 24.8193 109.16 22.2333V22.2176Z" fill="#320064"/>
<path d="M123.273 15.3687C123.273 14.1933 124.448 13.4723 126.218 13.4723C128.364 13.4723 129.617 14.491 129.648 15.9329H135.224C135.177 11.811 131.59 9.17801 126.171 9.17801C121.487 9.17801 117.556 11.0744 117.556 15.5254C117.556 23.5028 129.977 20.2272 129.977 24.2237C129.977 25.5246 128.771 26.2455 126.703 26.2455C124.322 26.2455 122.975 25.2268 122.975 23.5812H117.274C117.274 27.9538 120.955 30.6182 126.735 30.6182C132.514 30.6182 135.866 28.0635 135.866 24.02C135.866 16.1367 123.242 19.2085 123.242 15.353L123.273 15.3687Z" fill="#320064"/>
<path d="M142.038 0.119263C140.174 0.119263 138.67 1.62384 138.67 3.48888C138.67 5.35393 140.174 6.8585 142.038 6.8585C143.902 6.8585 145.405 5.35393 145.405 3.48888C145.405 1.62384 143.902 0.119263 142.038 0.119263Z" fill="#320064"/>
<path d="M145.029 9.66388H139.046V30.101H145.029V9.66388Z" fill="#320064"/>
<path d="M173.6 22.2176V14.1619H179.066V9.67953C175.464 9.60116 173.897 9.96164 171.579 11.2625L170.686 9.67953C173.443 8.09659 174.242 6.8898 174.493 3.8493H168.666C168.666 8.45706 167.773 9.67953 164.014 9.67953H162.823C159.221 9.60116 157.654 9.96164 155.336 11.2625L154.443 9.67953C157.2 8.09659 157.999 6.8898 158.25 3.8493H152.423C152.423 8.45706 151.53 9.67953 147.771 9.67953V14.1619H151.373V22.4684C151.373 28.9882 154.208 30.9316 162.933 30.0383V24.8977C158.359 25.4619 157.357 24.8193 157.357 22.2333V14.1776H167.601V22.4841C167.601 29.0039 170.436 30.9473 179.16 30.054V24.9133C174.587 25.4776 173.584 24.835 173.584 22.249L173.6 22.2176Z" fill="#320064"/>
<path d="M192.678 9.17809C186.005 9.17809 181.197 13.6761 181.197 19.8982C181.197 26.1202 185.974 30.6183 192.647 30.6183C197.816 30.6183 201.982 27.9069 203.611 23.6126H197.659C196.609 25.1485 194.793 26.0419 192.647 26.0419C189.702 26.0419 187.556 24.3492 187.023 21.7475H204.05C205.068 14.6635 200.087 9.16241 192.694 9.16241L192.678 9.17809ZM186.976 18.0801C187.54 15.4471 189.686 13.7075 192.678 13.7075C195.67 13.7075 197.847 15.4001 198.426 18.0801H186.976Z" fill="#320064"/>
<path d="M213.589 15.6195L211.725 14.8045C212.649 12.6573 213.025 11.3252 213.056 9.66386H207.402V30.101H213.385V22.296C213.385 16.7949 215.656 14.8045 222 15.2903V9.71088C217.395 9.30339 215.092 10.9177 213.589 15.6195Z" fill="#320064"/>
<path d="M32.5678 8.86558C31.8289 8.62961 31.0742 8.50376 30.3353 8.48802C30.634 4.94847 28.4644 1.53478 24.9428 0.386389C21.4211 -0.761998 17.6637 0.732478 15.8242 3.76863C15.2111 3.34388 14.5351 2.99779 13.7804 2.76182C9.66134 1.42466 5.24355 3.67424 3.90721 7.79585C3.21546 9.93531 3.48273 12.1534 4.48891 13.9783C2.60232 14.8749 1.07732 16.511 0.385563 18.6505C-0.950778 22.7721 1.29742 27.1926 5.41649 28.5297C6.76855 28.9702 8.16778 29.0174 9.47268 28.7342L11.4379 38H34.7531L31.7817 23.9834C34.4229 23.4171 36.7183 21.4978 37.6144 18.7291C38.9508 14.6075 36.7026 10.187 32.5835 8.84984L32.5678 8.86558ZM20.2735 24.7228C16.0443 25.6194 11.8781 22.9137 10.9662 18.6819C10.4474 16.2593 12.0039 13.8839 14.425 13.3647C15.7299 13.0816 17.0348 13.4119 18.0253 14.1513C18.6384 13.0658 19.6918 12.2478 20.9966 11.9646C23.4178 11.4455 25.7918 13.0029 26.3106 15.4255C27.2067 19.6573 24.5026 23.8261 20.2735 24.7385V24.7228Z" fill="#320064"/>
</svg>
